solid 
facet normal -1 -0 -0
 outer loop
  vertex -1 -1 -0.10000001
  vertex -1 -1 1.1175871e-08
  vertex -1 1 1.1175871e-08
 endloop
endfacet
facet normal -1 -0 0
 outer loop
  vertex -1 -1 -0.10000001
  vertex -1 1 1.1175871e-08
  vertex -1 1 -0.10000001
 endloop
endfacet
facet normal 0 1 0
 outer loop
  vertex -1 1 -0.10000001
  vertex -1 1 1.1175871e-08
  vertex 1 1 1.1175871e-08
 endloop
endfacet
facet normal 0 1 -0
 outer loop
  vertex -1 1 -0.10000001
  vertex 1 1 1.1175871e-08
  vertex 1 1 -0.10000001
 endloop
endfacet
facet normal 1 -0 0
 outer loop
  vertex 1 1 -0.10000001
  vertex 1 1 1.1175871e-08
  vertex 1 -1 1.1175871e-08
 endloop
endfacet
facet normal 1 -0 0
 outer loop
  vertex 1 1 -0.10000001
  vertex 1 -1 1.1175871e-08
  vertex 1 -1 -0.10000001
 endloop
endfacet
facet normal 0 -1 0
 outer loop
  vertex 1 -1 -0.10000001
  vertex 1 -1 1.1175871e-08
  vertex -1 -1 1.1175871e-08
 endloop
endfacet
facet normal 0 -1 0
 outer loop
  vertex 1 -1 -0.10000001
  vertex -1 -1 1.1175871e-08
  vertex -1 -1 -0.10000001
 endloop
endfacet
facet normal 0 0 -1
 outer loop
  vertex -1 1 -0.10000001
  vertex 1 1 -0.10000001
  vertex 1 -1 -0.10000001
 endloop
endfacet
facet normal 0 0 -1
 outer loop
  vertex -1 1 -0.10000001
  vertex 1 -1 -0.10000001
  vertex -1 -1 -0.10000001
 endloop
endfacet
facet normal 0 0 1
 outer loop
  vertex 1 1 1.1175871e-08
  vertex -1 1 1.1175871e-08
  vertex -1 -1 1.1175871e-08
 endloop
endfacet
facet normal 0 -0 1
 outer loop
  vertex 1 1 1.1175871e-08
  vertex -1 -1 1.1175871e-08
  vertex 1 -1 1.1175871e-08
 endloop
endfacet
endsolid 
